<svg width="512" height="512" xmlns="http://www.w3.org/2000/svg">

 <g>
  <title>background</title>
  <rect fill="none" id="canvas_background" height="402" width="582" y="-1" x="-1"/>
 </g>
 <g>
  <title>Layer 1</title>
  <circle id="svg_1" r="256" fill="#a57838" cy="254.672197" cx="256"/>
  <path id="svg_2" fill="#FFFFFF" d="m378.4,164.6l-244.8,0c-7.8,0 -14.1,6.3 -14.1,14.1l0,154.6c0,7.8 6.3,14.1 14.1,14.1l244.7,0c7.8,0 14.1,-6.3 14.1,-14.1l0,-154.6c0.1,-7.8 -6.3,-14.1 -14,-14.1zm-244.8,10.6l244.7,0c1.9,0 3.5,1.6 3.5,3.5l0,0.9l-125.8,96.4l-125.9,-96.4l0,-0.9c0,-1.9 1.6,-3.5 3.5,-3.5zm244.8,161.6l-244.8,0c-1.9,0 -3.5,-1.6 -3.5,-3.5l0,-140.3l122.7,93.9c0.2,0.2 0.4,0.2 0.6,0.3c0.2,0.1 0.3,0.2 0.5,0.3c0.7,0.3 1.3,0.5 2,0.5l0,0l0,0c0.7,0 1.4,-0.2 2,-0.5c0.2,-0.1 0.4,-0.2 0.5,-0.3c0.2,-0.1 0.4,-0.2 0.6,-0.3l122.9,-93.9l0,140.3c0,1.9 -1.6,3.5 -3.5,3.5z"/>
 </g>
</svg>